<svg width="1465" height="112" viewBox="0 0 1465 112" fill="none" xmlns="http://www.w3.org/2000/svg">
<path d="M1449.86 -346.857L-5.49049 -333.146C-13.971 -333.066 -20.6988 -325.977 -20.3354 -317.504L-5.91027 18.8338C-5.84866 20.2705 -6.31457 22.1975 -4.99598 22.7712C8.33003 28.5692 167.72 -43.6914 250.39 69C328.746 175.813 457.478 52.3033 483.102 25.798C486.063 22.7353 489.811 20.9997 494.071 21.0194C546.677 21.2625 904.92 24.5494 973.462 69C1047.48 117 1049.38 1 1123.39 5C1197.41 9 1263.83 115 1330.25 69C1371.65 40.3297 1413.79 47.3979 1439.66 56.7927C1450.95 60.8923 1465 52.8292 1465 40.8177V-331.858C1465 -340.198 1458.2 -346.936 1449.86 -346.857Z" fill="#BFBEAE"/>
</svg>
