<svg width="1440" height="383" viewBox="0 0 1440 383" fill="none" xmlns="http://www.w3.org/2000/svg">
<path d="M1427.17 383H14.825C6.54074 383 -0.174988 376.284 -0.174988 368V-202C-0.174988 -210.284 6.54075 -217 14.825 -217H1427.17C1435.46 -217 1442.17 -210.284 1442.17 -202V368C1442.17 376.284 1435.46 383 1427.17 383Z" fill="#909FA6"/>
<path d="M1448.86 -216.857L-6.49049 -203.146C-14.971 -203.066 -21.6988 -195.977 -21.3354 -187.504L-6.91027 148.834C-6.84866 150.27 -7.31457 152.198 -5.99598 152.771C7.33003 158.569 166.72 86.3086 249.39 199C327.746 305.813 456.478 182.303 482.102 155.798C485.063 152.735 488.811 151 493.071 151.019C545.677 151.262 903.92 154.549 972.462 199C1046.48 247 1048.38 131 1122.39 135C1196.41 139 1262.83 245 1329.25 199C1370.65 170.33 1412.79 177.398 1438.66 186.793C1449.95 190.892 1464 182.829 1464 170.818V-201.858C1464 -210.198 1457.2 -216.936 1448.86 -216.857Z" fill="#BFBEAE"/>
</svg>
