<svg width="1209" height="33" viewBox="0 0 1209 33" fill="none" xmlns="http://www.w3.org/2000/svg">
<path d="M1209 0V5.5C1209 5.5 1191.5 32.972 1132 32.972C1072.5 32.972 998 -2.52797 918.5 5.5C839 13.528 836 21.5 759.5 21.5C683 21.5 658.5 5.5 630.5 5.5C602.5 5.5 563 21.5 514 21.5C465 21.5 453 5.5 373 5.5C293 5.5 299 21.5 236.5 21.5C174 21.5 124.5 5.5 65.4999 5.5C65.4999 5.5 56.5 6.5 54 6.5C51.5 6.5 40 5.5 40 5.5C40 5.5 37.0906 5.5 33.4357 5.55548C28.1017 5.87961 23.3798 6.70924 19 6.5L0 5.5V0H59H630.5H1209Z" fill="#505D70"/>
</svg>
